<?xml version="1.0" encoding="UTF-8"?>
<svg version="1.1" xmlns="http://www.w3.org/2000/svg" width="385" height="282">
<path d="M0 0 C8.25 0 16.5 0 25 0 C25.0093457 3.59737061 25.01869141 7.19474121 25.02832031 10.90112305 C25.0621673 22.81944196 25.11756062 34.73758836 25.18390274 46.65576458 C25.22358409 53.87801638 25.25603157 61.10016095 25.27099609 68.32250977 C25.28406957 74.62308405 25.31117775 80.92342128 25.35461307 87.22386199 C25.37710169 90.55498535 25.39082356 93.88556274 25.39188385 97.2168026 C25.39426627 100.95047369 25.42145078 104.68323508 25.45410156 108.41674805 C25.4490712 109.50144882 25.44404083 110.5861496 25.43885803 111.70372009 C25.60413232 124.01046328 29.18011492 135.37907839 37 145 C47.35249242 154.9987202 59.75412467 159.08950288 74 159 C82.79881778 157.98360202 89.83730284 155.15056138 97 150 C97.64710938 149.54753906 98.29421875 149.09507812 98.9609375 148.62890625 C107.79158174 141.82275469 111.49571468 131.52774471 114 121 C114.50572959 116.79275854 114.56553541 112.65108026 114.54589844 108.41674805 C114.56140495 106.64362747 114.56140495 106.64362747 114.57722473 104.83468628 C114.60642305 100.97688758 114.60814708 97.11961877 114.609375 93.26171875 C114.6221905 90.567421 114.64091058 87.8731727 114.65948486 85.1789093 C114.69981755 78.84342773 114.72033158 72.50804848 114.73345876 66.17245847 C114.74940654 58.95092165 114.78785417 51.72955708 114.82805204 44.50812089 C114.9101392 29.67214225 114.96442531 14.83616612 115 0 C121.82696869 -0.25656985 128.65266793 -0.42989804 135.48339844 -0.54931641 C137.79962602 -0.59916579 140.11554625 -0.66707511 142.43066406 -0.75439453 C157.18605103 -1.29640313 167.72978449 -0.73105183 179.4523077 8.77760792 C181.76761058 10.60627109 184.26172912 12.1170886 186.77734375 13.65234375 C188.49794453 14.74653349 190.21799972 15.84158166 191.9375 16.9375 C193.33198364 17.82562378 193.33198364 17.82562378 194.75463867 18.73168945 C203.87396092 24.5461274 212.95223911 30.42286896 222.02246094 36.31347656 C230.52926695 41.83615552 239.06088963 47.31653767 247.625 52.75 C256.31971925 58.26704257 264.95478555 63.87022261 273.56884766 69.51220703 C280.59640567 74.1069172 287.67240473 78.61845219 294.79956055 83.05712891 C299.32290307 85.88669984 303.68802072 88.85679405 308 92 C304.32906113 95.02151766 300.52449872 97.75406879 296.5625 100.375 C295.91837158 100.80288818 295.27424316 101.23077637 294.6105957 101.67163086 C288.09240839 105.9787124 281.49113847 110.15380568 274.89086914 114.33349609 C267.55059312 118.99049136 260.2676736 123.73063957 253 128.5 C244.02026874 134.39139735 234.9990699 140.20951137 225.92822266 145.95947266 C212.50973901 154.47121572 199.18459477 163.12987628 186 172 C186.33 172.66 186.66 173.32 187 174 C182.34490566 175.93962264 182.34490566 175.93962264 180.21484375 176.3125 C176.99747973 177.31118795 174.57593067 179.15401621 171.8125 181.0625 C166.08963093 185 166.08963093 185 165 185 C165.00056554 183.807288 165.00056554 183.807288 165.0011425 182.5904808 C165.00825605 163.25311329 164.98239543 143.91604811 164.9197216 124.57877731 C164.89021027 115.22742624 164.87190698 105.87630278 164.87988281 96.52490234 C164.88680533 88.37527597 164.87280681 80.22600174 164.83356392 72.07646203 C164.81351362 67.76022995 164.80402285 63.44455111 164.81957626 59.12828827 C164.83388172 55.06667871 164.82024354 51.00612749 164.78504753 46.94465446 C164.77707022 45.45312577 164.77935634 43.96150192 164.79260826 42.47001076 C164.8091607 40.43518371 164.78537716 38.40014719 164.75949097 36.36541748 C164.75764738 35.22608135 164.75580379 34.08674522 164.75390434 32.91288376 C164.22964039 29.7390712 164.22964039 29.7390712 161.23524666 27.64024734 C158.32032006 26.16240002 156.67180634 25.48324076 153.4765625 25.390625 C152.68378906 25.35839844 151.89101562 25.32617188 151.07421875 25.29296875 C150.26597656 25.27878906 149.45773438 25.26460937 148.625 25.25 C147.37783203 25.20552734 147.37783203 25.20552734 146.10546875 25.16015625 C144.07082173 25.08999601 142.03540909 25.04267105 140 25 C140.00999275 26.77620224 140.00999275 26.77620224 140.02018738 28.58828735 C140.08124437 39.79759929 140.12609007 51.00687707 140.15543652 62.21631813 C140.17103144 67.97794195 140.19215595 73.73943054 140.22631836 79.50097656 C140.25913318 85.0706857 140.27689933 90.64026551 140.28463173 96.21006393 C140.29013577 98.32532153 140.30088276 100.44057279 140.31719017 102.55577469 C140.49518246 126.61983588 136.4350167 146.9194048 119.4375 165.1875 C103.49479412 180.39551898 84.78544645 184.61907982 63.34375 184.34375 C55.51173414 184.06634684 49.12851768 182.34784164 42 179 C40.51693359 178.31357422 40.51693359 178.31357422 39.00390625 177.61328125 C21.26583893 168.63353843 8.63248087 153.60236011 2.29223633 134.84399414 C-1.32777038 122.87675123 -0.63993122 110.41062825 -0.50696969 98.0351665 C-0.47527771 94.57729345 -0.4727423 91.1193881 -0.46684265 87.66139221 C-0.45142789 81.14167318 -0.4105713 74.62238358 -0.3600952 68.10285193 C-0.30381136 60.6685611 -0.27661813 53.23424753 -0.25161803 45.79979599 C-0.19964075 30.53290776 -0.10810869 15.26660963 0 0 Z M189 46 C189 76.69 189 107.38 189 139 C193.45615543 137.21753783 197.23695064 135.11970971 201.25 132.5625 C201.94963867 132.12075439 202.64927734 131.67900879 203.37011719 131.22387695 C210.51705928 126.69933733 217.61814062 122.10352568 224.70800781 117.49023438 C227.13432475 115.91266316 229.56307562 114.33888884 231.9921875 112.765625 C236.19998742 110.0392078 240.40197806 107.30402547 244.60058594 104.56347656 C246.18025458 103.53415239 247.76159558 102.50738945 249.34472656 101.48339844 C251.48404351 100.09946125 253.61764408 98.70712997 255.75 97.3125 C256.70737061 96.69749634 256.70737061 96.69749634 257.68408203 96.07006836 C259.1586086 95.09913466 260.58555648 94.05654644 262 93 C262 92.34 262 91.68 262 91 C260.1612856 89.54593374 260.1612856 89.54593374 257.75 88.09375 C256.84000244 87.52019775 255.93000488 86.94664551 254.99243164 86.35571289 C254.0049292 85.74332764 253.01742676 85.13094238 252 84.5 C250.99122803 83.86634521 249.98245605 83.23269043 248.94311523 82.57983398 C245.96671219 80.712338 242.98462166 78.85432624 240 77 C237.35395474 75.35450682 234.70802769 73.70882519 232.0625 72.0625 C231.44938965 71.6819043 230.8362793 71.30130859 230.20458984 70.90917969 C223.14333648 66.5046178 216.19280909 61.92868347 209.24243164 57.35180664 C199.71746673 49.91647634 199.71746673 49.91647634 189 46 Z " fill="#FCFCFC" transform="translate(40,48)"/>
<path d="M0 0 C22.11 0 44.22 0 67 0 C67 7.92 67 15.84 67 24 C53.14 24.33 39.28 24.66 25 25 C25 101.89 25 178.78 25 258 C38.86 258 52.72 258 67 258 C67 265.92 67 273.84 67 282 C44.89 282 22.78 282 0 282 C0 188.94 0 95.88 0 0 Z " fill="#FEFEFE" transform="translate(0,0)"/>
<path d="M0 0 C21.12 0 42.24 0 64 0 C64 93.06 64 186.12 64 282 C42.88 282 21.76 282 0 282 C0 273.75 0 265.5 0 257 C13.86 257 27.72 257 42 257 C42 180.11 42 103.22 42 24 C28.14 23.67 14.28 23.34 0 23 C0 15.41 0 7.82 0 0 Z " fill="#FEFEFE" transform="translate(321,0)"/>
<path d="M0 0 C3.21043882 1.38188453 5.04936365 2.92421903 7.25 5.625 C8.03117187 6.57246094 8.03117187 6.57246094 8.828125 7.5390625 C9.40820312 8.26222656 9.40820312 8.26222656 10 9 C7 9 7 9 5.17578125 7.5390625 C4.56089844 6.90742188 3.94601563 6.27578125 3.3125 5.625 C2.68988281 4.99851563 2.06726562 4.37203125 1.42578125 3.7265625 C0 2 0 2 0 0 Z " fill="#DFDFDD" transform="translate(56,206)"/>
<path d="M0 0 C2.97 1.65 5.94 3.3 9 5 C9 5.33 9 5.66 9 6 C6.1875 6.25 6.1875 6.25 3 6 C1.125 4.125 1.125 4.125 0 2 C0 1.34 0 0.68 0 0 Z " fill="#E9E9E9" transform="translate(288,51)"/>
<path d="" fill="#A3A3A1" transform="translate(0,0)"/>
</svg>
